<svg id="Layer_1" data-name="Layer 1" xmlns="http://www.w3.org/2000/svg" width="24mm" height="24mm" viewBox="0 0 68 68"><path d="M34,62.7a28.6,28.6,0,1,0-.1,0Z" style="fill:#edf3fc"/><path d="M34,0A34,34,0,1,0,68,34,34,34,0,0,0,34,0Zm0,66.9A32.9,32.9,0,1,1,66.9,34h0A32.9,32.9,0,0,1,34,66.9Z" style="fill:#edf3fc"/><path d="M29.3,16.2a3.7,3.7,0,0,1,.2-1.8,5.8,5.8,0,0,0-2.9-.6,6.8,6.8,0,0,0-6.8,6.8,6.3,6.3,0,0,0,2,4.7h9.6a8.3,8.3,0,0,0,1.8-3A6.5,6.5,0,0,1,29.3,16.2Z" style="fill:#ffbe1b"/><path d="M29.3,16.2a5.4,5.4,0,0,0-2.7-.7,5.1,5.1,0,0,0-1.8,9.8h3.5a5,5,0,0,0,3.3-4A6.8,6.8,0,0,1,29.3,16.2Z" style="fill:#ffe37b"/><path d="M28.6,20.9a1.2,1.2,0,0,0-.7-.5h.4q.3-.2.3-.9a1.1,1.1,0,0,0-.3-.8l-.5-.4h-.3v-.6h-.8v.6h-.6v-.6h-.9v.6h-.9v.9H25v3h-.7v1h.9v.5h.9v-.5h.6v.5h.8v-.5a1.6,1.6,0,0,0,1-.5,1,1,0,0,0,.4-.9A1.1,1.1,0,0,0,28.6,20.9ZM26.1,19h1.2a.6.6,0,0,1,.2.5c0,.2-.1.4-.2.4H26.1Zm1.4,3H26.1V20.9h.6l.8.2c.2.1.3.2.3.4A.5.5,0,0,1,27.5,22Z" style="fill:#fff"/><path d="M15.2,28a3.7,3.7,0,0,1-2.7-2.8h0A3.8,3.8,0,0,1,9.7,28h0a4.1,4.1,0,0,1,2.8,2.9h0A4,4,0,0,1,15.2,28Z" style="fill:#ffbe1b"/><path d="M16.5,21.6a2.7,2.7,0,0,1-2-1.9h0a2.6,2.6,0,0,1-2,1.9h0a2.9,2.9,0,0,1,2,2h0a3.3,3.3,0,0,1,2-2Z" style="fill:#ffbe1b"/><path d="M56.8,35.4a2.8,2.8,0,0,1-2-2.2h0a3.1,3.1,0,0,1-2.2,2.2h0a2.8,2.8,0,0,1,2.2,2.1h0a2.7,2.7,0,0,1,2-2.1Z" style="fill:#5d8ef9"/><path d="M49.4,14.8a3.3,3.3,0,0,1-2.3-2.4h0a3.3,3.3,0,0,1-2.4,2.4h0A3,3,0,0,1,47,17.1h0a3.7,3.7,0,0,1,2.4-2.3Z" style="fill:#330d84"/><path d="M39.6,26.6a5.3,5.3,0,0,1,.1-1.3h-19a3.5,3.5,0,0,0-3.5,3.3,2.6,2.6,0,0,0,1.6,1.9,7.9,7.9,0,0,0,3,.5H41.2A6.6,6.6,0,0,1,39.6,26.6Z" style="fill:#6857e5"/><path d="M46.4,19.8a6.7,6.7,0,0,0-6.8,6.8A6.6,6.6,0,0,0,41.2,31h6.2a3.3,3.3,0,0,1,2.7,1.2,6.7,6.7,0,0,0-3.7-12.4Z" style="fill:#5d8ef9"/><path d="M46.4,21.5a5,5,0,0,0-5.1,5h0A4.8,4.8,0,0,0,43.8,31h3.6a2.5,2.5,0,0,1,1.2.2,4.9,4.9,0,0,0,2.8-4.6A5,5,0,0,0,46.4,21.5Z" style="fill:#8ac9f9"/><path d="M46.4,23.1l-2.1,3.2,2.1,1.6,2-1.6Z" style="fill:#fff"/><path d="M46.4,28.4l-2.1-1.6L46.4,30l2-3.2Z" style="fill:#fff"/><path d="M47.4,31H21.8a7.9,7.9,0,0,1-3-.5,2.9,2.9,0,0,1-1.6-2V50.7a3.7,3.7,0,0,0,3.5,3.4H47.4a3.6,3.6,0,0,0,3.4-3.4V34.3A3.4,3.4,0,0,0,47.4,31Z" style="fill:#8c7bfd"/><path d="M41.7,39.1a1.5,1.5,0,0,0-1.5,1.5v3.7a1.5,1.5,0,0,0,1.5,1.4h9.1V39.1Z" style="fill:#8ac9f9"/><path d="M43.1,41a1.5,1.5,0,1,0,1.5,1.5h0A1.5,1.5,0,0,0,43.1,41Z" style="fill:#ffe37b"/><path d="M36,9.3a6.9,6.9,0,1,0,6.8,6.9A6.8,6.8,0,0,0,36,9.3Z" style="fill:#330d84"/><g id="Shape_1" data-name="Shape 1"><path d="M41.2,15.7C40,8.9,31.1,10.2,31,15.7l.7.5-.7.5a5.1,5.1,0,0,0,10.2,0l-.9-.5Zm-4.4,2.4L36,16.7l-.8,1.4h-.7L35.7,16l-1.1-1.7h.6l.8,1.2.8-1.2h.6l-1,1.7,1.1,2Z" style="fill:#3138ba"/></g><g id="Shape_1-2" data-name="Shape 1-2"><polygon points="36.4 16 37.4 14.3 36.8 14.3 36 15.5 35.3 14.3 34.6 14.3 35.7 16 34.5 18.1 35.2 18.2 36 16.7 36.8 18.2 37.6 18.1 36.4 16" style="fill:#fff"/></g></svg>