<svg id="Layer_1" data-name="Layer 1" xmlns="http://www.w3.org/2000/svg" width="24mm" height="24mm" viewBox="0 0 68 68"><path d="M34,62.7a28.6,28.6,0,1,0-.1,0Z" style="fill:#edf3fc"/><path d="M34,0A34,34,0,1,0,68,34,34,34,0,0,0,34,0Zm0,66.9A32.9,32.9,0,1,1,66.9,34h0A32.9,32.9,0,0,1,34,66.9Z" style="fill:#edf3fc"/><path d="M42.5,43c-1.2-1.4-4.5-4.7-8.7-4.7a9.7,9.7,0,0,0-7.1,3.3,10.1,10.1,0,0,1-1.3,1.6h-.1c-2.3,2.7-5,4.6-7.2,4.3-5.2-.8-4.6-11.1-2.5-17.9s5-9,9.2-8.3l.7.2c3.5.5,4.3,1.3,8.3,1.3a37,37,0,0,0,8.8-1.4h.6c4.3-.7,7.1,1.5,9.2,8.3S55.1,46.9,50,47.7c-2.2.3-4.6-1.4-6.8-3.9l-.2-.2-.2-.3-.3-.3Zm-19-8.8a3.9,3.9,0,0,0,3.9-3.9,4,4,0,0,0-3.9-3.9h0a3.9,3.9,0,0,0-3.9,3.9A3.8,3.8,0,0,0,23.5,34.2Z" style="fill:#95eaff"/><path d="M24.3,17.2H20.9c-1.8,0-3.4,1-3.4,2.4v2.2h1.6V19.6c0-.4.7-.8,1.8-.8h3.4c1,0,1.8.4,1.8.8v2.2h1.6V19.6c0-1.4-1.6-2.4-3.4-2.4Zm18,2.4c0-.4.7-.8,1.7-.8h3.5c1,0,1.7.4,1.7.8v2.2h1.6V19.6c0-1.4-1.5-2.4-3.3-2.4H44c-1.8,0-3.3,1-3.3,2.4v2.2h1.6Z" style="fill:#49a3fe"/><path d="M44.5,27.8a1.6,1.6,0,1,0,1.6-1.6A1.6,1.6,0,0,0,44.5,27.8Z" style="fill:#49a3fe"/><path d="M41.3,31a1.6,1.6,0,0,0,1.6,1.6,1.6,1.6,0,1,0,0-3.2A1.6,1.6,0,0,0,41.3,31Z" style="fill:#49a3fe"/><path d="M47.7,31a1.6,1.6,0,1,0,1.6-1.6A1.6,1.6,0,0,0,47.7,31Z" style="fill:#49a3fe"/><path d="M44.5,34.2a1.6,1.6,0,1,0,1.6-1.6A1.6,1.6,0,0,0,44.5,34.2Z" style="fill:#49a3fe"/><path d="M38,35.8H35.4a.8.8,0,0,0-.8.8.9.9,0,0,0,.8.8H38a.8.8,0,0,0,.8-.8A.7.7,0,0,0,38,35.8Zm-6,0H29.4a.7.7,0,0,0-.8.8.8.8,0,0,0,.8.8H32a.8.8,0,0,0,.8-.8A.7.7,0,0,0,32,35.8Z" style="fill:#49a3fe"/><path d="M55.4,29.8c-2.5-7.8-5.9-10.7-11.2-9.9l-.8.2c-.1,0-2.2.6-3.1.7a25.9,25.9,0,0,1-6.6.8,15.3,15.3,0,0,1-4.9-.6l-1.3-.3a13.6,13.6,0,0,0-2.9-.6l-.8-.2c-5.3-.8-8.7,2.1-11.1,9.9-3.2,9.8-2.5,20.1,3.3,21,2.7.4,5.8-1.5,8.9-5.1a.3.3,0,0,0,.1-.2h0a20.9,20.9,0,0,0,1.4-1.7,10,10,0,0,1,7.3-3.5c3.6,0,6.8,2.1,9.2,5l.3.4c.1.1.2.2.2.3h.3c2.8,3.3,5.7,5,8.3,4.6,5.8-.9,6.5-11.2,3.4-21ZM51.8,49.2c-1.9.3-4.4-1.2-7-4.1h-.1l-.3-.4-.3-.3c-2.7-3.2-6.2-5.6-10.4-5.6a11.6,11.6,0,0,0-8.5,4l-1.4,1.8h-.1c-2.8,3.3-5.4,4.9-7.4,4.6-4.3-.6-5-10-2.1-19,2.2-7,5-9.4,9.4-8.7l.7.2,2.8.5,1.3.4a22,22,0,0,0,5.3.6,34,34,0,0,0,6.9-.8l3.2-.7.6-.2c4.5-.7,7.2,1.7,9.4,8.7C56.7,39.2,56.1,48.6,51.8,49.2Z" style="fill:#0f13ae"/><path d="M51.7,45l-.8.3h-1a9.5,9.5,0,0,1-4-2.9c0-.1-.1-.1-.1-.2l-.2-.2-.2-.3a.8.8,0,0,0-1.1-.1.8.8,0,0,0-.2,1.1h.1l.2.2c.1.1.1.2.2.2h.1v.2a9.9,9.9,0,0,0,4.7,3.3,3.2,3.2,0,0,0,1.7.1,3.3,3.3,0,0,0,1.3-.4.9.9,0,0,0,.3-1.1.8.8,0,0,0-1.1-.3Zm-29-3.1h0A13.7,13.7,0,0,1,21,43.6c-1.4,1.2-2.7,1.8-3.6,1.7a2.7,2.7,0,0,1-1.2-.6.9.9,0,0,0-1.1.1.8.8,0,0,0,.1,1.1,3.4,3.4,0,0,0,1.9.9c1.6.3,3.3-.5,5-2L23.9,43c0-.1.1-.1.1-.2a.8.8,0,0,0-.1-1.1.8.8,0,0,0-1.1.1.1.1,0,0,0-.1.1Z" style="fill:#0f13ae"/><path d="M42.1,40.6a.9.9,0,0,0,1.8,0h0a.9.9,0,0,0-1.8,0Z" style="fill:#0f13ae"/><path d="M13.4,43a.9.9,0,0,0,.9.9.8.8,0,0,0,.8-.9h0a.8.8,0,0,0-.8-.9A.9.9,0,0,0,13.4,43Z" style="fill:#0f13ae"/><path d="M23.3,29.5v-.9a.7.7,0,0,0-.8-.8.8.8,0,0,0-.8.8v.9H20.6a.9.9,0,0,0-.8.8.8.8,0,0,0,.8.8h1.1v1.5a.9.9,0,0,0,.8.8.8.8,0,0,0,.8-.8V31.1h1.3a.8.8,0,0,0,.8-.8.9.9,0,0,0-.8-.8Z" style="fill:#0f13ae"/><path d="M22.6,25.4a5.2,5.2,0,0,0-5.2,5.2,5.2,5.2,0,1,0,10.4,0A5.2,5.2,0,0,0,22.6,25.4Zm0,8.8a3.6,3.6,0,1,1,3.6-3.6A3.6,3.6,0,0,1,22.6,34.2Z" style="fill:#0f13ae"/></svg>