<svg id="Layer_1" data-name="Layer 1" xmlns="http://www.w3.org/2000/svg" width="24mm" height="24mm" viewBox="0 0 68 68"><path d="M34,5.3A28.7,28.7,0,1,0,62.7,34,28.8,28.8,0,0,0,34,5.3Z" style="fill:#edf3fc"/><path d="M34,0A34,34,0,1,0,68,34,34.1,34.1,0,0,0,34,0Zm0,66.9A32.9,32.9,0,1,1,66.9,34,32.9,32.9,0,0,1,34,66.9Z" style="fill:#edf3fc"/><path d="M59.6,34.6a3.9,3.9,0,0,1-2.9-2.9v0a3.8,3.8,0,0,1-2.9,2.9h0a4.1,4.1,0,0,1,2.9,2.9v0a4.2,4.2,0,0,1,2.9-2.9h0Z" style="fill:#ffbe1b"/><path d="M31.8,52.1a5.1,5.1,0,0,1-3.5-3.5v0a5.1,5.1,0,0,1-3.5,3.5h0a5.1,5.1,0,0,1,3.5,3.5v0a5.1,5.1,0,0,1,3.5-3.5h0Z" style="fill:#330d84"/><path d="M23.7,18.5a4.7,4.7,0,0,1-3.2-3.2v0a4.5,4.5,0,0,1-3.2,3.2h0a4.5,4.5,0,0,1,3.2,3.2v0a4.7,4.7,0,0,1,3.2-3.2h0Z" style="fill:#5d8ef9"/><path d="M29.8,20.4a2.8,2.8,0,0,1-2.1-2.1h-.1a2.6,2.6,0,0,1-2,2.1h0a2.6,2.6,0,0,1,2,2v0a2.8,2.8,0,0,1,2.1-2h0Z" style="fill:#5d8ef9"/><path d="M42.8,23.5,19.7,27.1H46.2A5.5,5.5,0,0,1,42.8,23.5Z" style="fill:#8ac9f9"/><path d="M49.3,23.6a2.8,2.8,0,0,0-3.2-2.4L15.8,25.9a2.7,2.7,0,0,0-2.3,3.2l2.1,13.8v-13a2.9,2.9,0,0,1,2.9-2.8h1.2l23.1-3.6a5.5,5.5,0,0,0,3.4,3.6h3.7Z" style="fill:#5d8ef9"/><path d="M45.5,28.9H22.1a5.5,5.5,0,0,1-4.7,4.6v6.8a5.5,5.5,0,0,1,4.7,4.6H40.5a1.4,1.4,0,0,1,1.4-1.1,1.3,1.3,0,0,1-1.4-1.2v-.5a1.3,1.3,0,0,1,1.4-1.2,1.3,1.3,0,0,1-1.4-1.3v-.5a1.3,1.3,0,0,1,1.4-1.2h8.2V33.5A5.4,5.4,0,0,1,45.5,28.9Z" style="fill:#6857e5"/><path d="M33.8,30.8a6.1,6.1,0,1,0,0,12.2,6.1,6.1,0,1,0,0-12.2Z" style="fill:#330d84"/><path d="M49.1,27.1H18.5a2.9,2.9,0,0,0-2.9,2.8v14a2.9,2.9,0,0,0,2.9,2.8H40.9l-.2-.2h0c-.1,0-.1,0-.1-.1h-.1v-.7H22.1a5.5,5.5,0,0,0-4.7-4.6V33.5a5.5,5.5,0,0,0,4.7-4.6H45.5a5.4,5.4,0,0,0,4.6,4.6v4.4h1.8v-8A2.8,2.8,0,0,0,49.1,27.1Z" style="fill:#330d84"/><path d="M36,37a3.8,3.8,0,0,0-1.8-.8h0v-2a3.4,3.4,0,0,1,1.5.6l.7-.9a4.5,4.5,0,0,0-2.2-.8v-.5h-.6v.5a2.4,2.4,0,0,0-1.7.6,2,2,0,0,0-.6,1.5,2,2,0,0,0,.5,1.4,5.2,5.2,0,0,0,1.8.7v2a3.7,3.7,0,0,1-1.9-.9l-.7.9a4.2,4.2,0,0,0,2.6,1.2v.7h.6v-.7a2.9,2.9,0,0,0,1.7-.7,1.5,1.5,0,0,0,.7-1.4A1.7,1.7,0,0,0,36,37Zm-2.4-1c-.4-.1-.7-.2-.8-.4a.5.5,0,0,1-.3-.5.6.6,0,0,1,.3-.6,1,1,0,0,1,.8-.3V36ZM35,39.1l-.8.3V37.5a1.9,1.9,0,0,1,.9.4.8.8,0,0,1,.2.6A.9.9,0,0,1,35,39.1Z" style="fill:#fff"/><path d="M53.1,43.8H41.9a1.3,1.3,0,0,0-1.4,1.3v.5a1.3,1.3,0,0,0,1.4,1.2H53.1c.9,0,1.5-.5,1.5-1.2v-.5A1.4,1.4,0,0,0,53.1,43.8Z" style="fill:#ffbe1b"/><path d="M53.1,40.9H41.9a1.3,1.3,0,0,0-1.4,1.2v.5a1.3,1.3,0,0,0,1.4,1.2H53.1c.9,0,1.5-.5,1.5-1.2v-.5C54.6,41.4,54,40.9,53.1,40.9Z" style="fill:#ffca45"/><path d="M53.1,37.9H41.9a1.3,1.3,0,0,0-1.4,1.2v.5a1.3,1.3,0,0,0,1.4,1.3H53.1a1.4,1.4,0,0,0,1.5-1.3v-.5C54.6,38.4,54,37.9,53.1,37.9Z" style="fill:#ffe37b"/></svg>