<svg id="Layer_1" data-name="Layer 1" xmlns="http://www.w3.org/2000/svg" width="33.7mm" height="33.7mm" viewBox="0 0 95.6 95.6"><path d="M48,7.7A40.3,40.3,0,1,0,88.3,48,40.2,40.2,0,0,0,48,7.7Z" transform="translate(-0.2 -0.2)" style="fill:#edf3fc"/><path d="M48,.2A47.8,47.8,0,1,0,95.8,48,47.8,47.8,0,0,0,48,.2Zm0,94.1A46.3,46.3,0,1,1,94.3,48,46.4,46.4,0,0,1,48,94.3Z" transform="translate(-0.2 -0.2)" style="fill:#edf3fc"/><path d="M75.9,28.3a5.7,5.7,0,0,1-4.1-4.1v0a5.7,5.7,0,0,1-4.1,4.1h0a5.7,5.7,0,0,1,4.1,4.1v0a5.7,5.7,0,0,1,4.1-4.1h0Z" transform="translate(-0.2 -0.2)" style="fill:#ffbe1b"/><path d="M29.2,64.5a7.3,7.3,0,0,1-5.3-5.3v0a7.3,7.3,0,0,1-5.3,5.3h0A7.3,7.3,0,0,1,23.7,70v0a7.3,7.3,0,0,1,5.3-5.3h0Z" transform="translate(-0.2 -0.2)" style="fill:#330d84"/><path d="M28.4,33.3a6.2,6.2,0,0,1-4.5-4.5v0a6.2,6.2,0,0,1-4.5,4.5h0A6.2,6.2,0,0,1,23.7,38v0a6.2,6.2,0,0,1,4.5-4.5h0Z" transform="translate(-0.2 -0.2)" style="fill:#5d8ef9"/><path d="M30.7,23.8a4.2,4.2,0,0,1-3.1-3.1v0a4.2,4.2,0,0,1-3.1,3.1h0a4.1,4.1,0,0,1,3.1,3.1v0A4.2,4.2,0,0,1,30.7,24h0Z" transform="translate(-0.2 -0.2)" style="fill:#5d8ef9"/><path d="M49.9,34H62.6V25A3.6,3.6,0,0,0,59,21.4H37A3.6,3.6,0,0,0,33.4,25V70.1A3.6,3.6,0,0,0,37,73.7H59a3.6,3.6,0,0,0,3.6-3.6V54.6H59.8l-6.4,6.3V54.6H50a4.7,4.7,0,0,1-4.7-4.7V38.7A4.5,4.5,0,0,1,49.9,34Z" transform="translate(-0.2 -0.2)" style="fill:#330d84"/><path d="M75.8,34H49.9a4.7,4.7,0,0,0-4.7,4.7V49.9a4.7,4.7,0,0,0,4.7,4.7h3.4v6.3l6.4-6.3H75.8a4.7,4.7,0,0,0,4.7-4.7V38.7A4.7,4.7,0,0,0,75.8,34Z" transform="translate(-0.2 -0.2)" style="fill:#ffbe1b"/><path d="M50.9,68.1H45.1a1,1,0,0,0-1,1v2a1,1,0,0,0,1,1h5.8a1,1,0,0,0,1-1v-2A.9.9,0,0,0,50.9,68.1Z" transform="translate(-0.2 -0.2)" style="fill:#5932ae"/><path d="M51.4,22.4H44.6a.4.4,0,0,0-.4.4v.7a.4.4,0,0,0,.4.4h6.8a.4.4,0,0,0,.4-.4v-.7C51.7,22.6,51.6,22.4,51.4,22.4Z" transform="translate(-0.2 -0.2)" style="fill:#5932ae"/><path d="M49.9,34H60.5V28.6A3.6,3.6,0,0,0,56.9,25H39.1a3.6,3.6,0,0,0-3.6,3.6V63.4A3.6,3.6,0,0,0,39.1,67H56.9a3.6,3.6,0,0,0,3.6-3.6V54.6h-.8l-6.4,6.3V54.6H49.9a4.7,4.7,0,0,1-4.7-4.7V38.7A4.7,4.7,0,0,1,49.9,34Z" transform="translate(-0.2 -0.2)" style="fill:#8ac9f9"/><rect x="51.1" y="40" width="28.1" height="10.1" style="fill:none"/><g style="isolation:isolate"><path d="M50.1,40.7l2.5-.2a4.4,4.4,0,0,1,2.5.7,2.4,2.4,0,0,1,.8,1.9,2.5,2.5,0,0,1-.7,1.9,4,4,0,0,1-2.7.8h-.6v2.9H50.1Zm1.8,3.7h.6c1,0,1.6-.5,1.6-1.3s-.5-1.2-1.4-1.2h-.8Z" transform="translate(-0.2 -0.2)" style="fill:#330d84"/><path d="M57.1,40.6h1.8v6.6h3.2v1.5h-5Z" transform="translate(-0.2 -0.2)" style="fill:#330d84"/><path d="M65.2,46.6l-.6,2.1H62.7l2.5-8.1h2.4l2.5,8.1h-2l-.6-2.1Zm2-1.3-.5-1.8c-.1-.4-.3-1-.4-1.5h0c-.1.5-.3,1.1-.4,1.5l-.5,1.8Z" transform="translate(-0.2 -0.2)" style="fill:#330d84"/><path d="M71.9,48.7V45.4l-2.6-4.8h2.1l.8,2a10.1,10.1,0,0,1,.7,1.5h0l.6-1.5.8-2h2.1l-2.7,4.7v3.4Z" transform="translate(-0.2 -0.2)" style="fill:#330d84"/></g></svg>