<?xml version="1.0" encoding="utf-8"?>
<!-- Generator: Adobe Illustrator 25.0.1, SVG Export Plug-In . SVG Version: 6.00 Build 0)  -->
<svg version="1.1" id="Layer_1" xmlns="http://www.w3.org/2000/svg" xmlns:xlink="http://www.w3.org/1999/xlink" x="0px" y="0px"
	 viewBox="0 0 601 162" style="enable-background:new 0 0 601 162;" xml:space="preserve">
<style type="text/css">
	.st0{fill:#FFFFFF;}
	.st1{fill:#22AD74;}
</style>
<g id="Layer_x0020_1">
	<path class="st0" d="M264.4,62c0-5.4-0.9-9.9-2.7-13.4c-1.8-3.5-4.5-6.1-8.2-7.7c-3.7-1.7-8.3-2.5-14-2.5h-40.3
		c-2.6,0-5.1,0.6-7.3,1.9c-2.3,1.2-4.3,2.9-6,5c-1.7,2.2-3.1,4.7-4,7.5c-1,2.8-1.5,5.9-1.5,9.2v38c0,3.3,0.5,6.3,1.5,9.2
		c1,2.8,2.3,5.3,4,7.5c1.7,2.1,3.7,3.8,6,5c2.3,1.2,4.7,1.8,7.3,1.9h36.1c5.6,0,10.3-0.7,14.1-2c3.8-1.3,6.7-3.1,8.9-5.4
		c2.2-2.3,3.8-4.9,4.7-7.9c0.9-3,1.4-6.1,1.4-9.4V80.3c-0.1-1.4-0.5-2.5-1.2-3.3c-0.7-0.8-1.7-1.3-2.8-1.3h-34.8
		c-0.7,0-1.4,0.2-2.1,0.7c-0.6,0.4-1.1,1.1-1.5,1.8c-0.4,0.8-0.6,1.6-0.6,2.6v1.9c0,0.9,0.2,1.8,0.6,2.6c0.4,0.7,0.9,1.4,1.5,1.8
		c0.6,0.5,1.3,0.7,2.1,0.7h21.8V99c0,1.3-0.4,2.5-1,3.6c-0.7,1.1-1.6,2-2.8,2.9c-1.2,0.8-2.6,1.5-4.1,1.9c-1.6,0.5-3.3,0.7-5,0.8
		l-29.7,0.1c-1.4,0-2.6-0.5-3.7-1.3c-1.1-0.9-2-2-2.6-3.4c-0.6-1.5-1-3.1-1-4.8V62.3c0-1.5,0.3-2.9,1-4.2c0.6-1.2,1.5-2.3,2.6-3
		c1.1-0.8,2.3-1.2,3.7-1.2l29.1-0.1c1.9,0,3.6,0,5.3,0.2c1.6,0.2,3.1,0.6,4.3,1.3c1.3,0.7,2.2,1.8,3,3.4c0.7,1.6,1.1,3.7,1.1,6.5
		v0.2c0,1,0.2,1.7,0.7,2.3c0.5,0.5,1.1,0.8,1.8,0.9h11.7c0.8,0,1.5-0.3,2-1c0.5-0.6,0.8-1.5,0.8-2.5L264.4,62L264.4,62z"/>
	<path id="_x31_" class="st0" d="M334.9,43.5c-0.4-0.9-0.9-1.7-1.5-2.5c-0.6-0.8-1.2-1.4-2-1.9c-0.7-0.5-1.4-0.7-2.2-0.7h-14.5
		c-0.7,0-1.5,0.3-2.2,0.7c-0.7,0.5-1.3,1.1-1.9,1.9c-0.6,0.8-1.1,1.6-1.5,2.5l-32.5,69.8c-0.9,2-1.6,3.6-1.9,4.8
		c-0.3,1.3-0.4,2.3-0.3,3c0.1,0.7,0.4,1.3,0.9,1.6c0.4,0.3,0.9,0.6,1.4,0.6c0.5,0.1,1,0.1,1.5,0.1h9.9c1,0,1.7-0.2,2.3-0.6
		c0.6-0.4,1.1-1,1.5-1.8c0.4-0.8,0.8-1.7,1.3-2.7l28.8-60l19.2,38.9h-21.5c-0.7,0-1.4,0.2-2,0.7c-0.6,0.5-1,1.1-1.4,1.8
		c-0.4,0.8-0.7,1.6-1,2.5l-1.6,5c-0.2,0.8-0.3,1.5-0.3,2.3c0.1,0.8,0.4,1.4,1.1,2c0.6,0.5,1.7,0.8,3.2,0.8h30.1l2.8,6.1
		c0.5,1,0.9,1.8,1.2,2.5c0.3,0.6,0.6,1.2,0.9,1.5c0.3,0.4,0.6,0.6,1.1,0.8c0.4,0.2,1,0.2,1.7,0.2h8.9c0.5,0,1,0,1.6-0.1
		c0.6-0.1,1.2-0.3,1.8-0.6c0.6-0.3,1-0.7,1.3-1.4c0.3-0.6,0.4-1.5,0.2-2.6c-0.1-1.1-0.6-2.5-1.4-4.1L334.9,43.5L334.9,43.5z"/>
	<path id="_x31_2" class="st0" d="M437.4,104.2l-30.7-60.7c-0.5-1-0.9-1.8-1.5-2.6c-0.6-0.8-1.2-1.4-1.9-1.8
		c-0.7-0.5-1.6-0.7-2.5-0.7h-15.6c-0.7,0-1.4,0.2-2.1,0.7c-0.6,0.4-1.1,1.1-1.5,1.8c-0.4,0.8-0.6,1.6-0.6,2.6v74.9
		c0,0.9,0.2,1.8,0.6,2.6c0.4,0.8,0.9,1.4,1.5,1.8c0.6,0.5,1.3,0.7,2.1,0.7h8.9c0.8,0,1.4-0.2,2.1-0.7c0.6-0.4,1.1-1.1,1.5-1.8
		c0.4-0.8,0.6-1.6,0.6-2.6v-55l28.6,55c0.4,0.9,0.9,1.7,1.5,2.5c0.6,0.8,1.2,1.4,2,1.9c0.7,0.5,1.4,0.7,2.2,0.7h10
		c0.8,0,1.5-0.3,2.2-0.7c0.7-0.5,1.4-1.1,2-1.9c0.6-0.8,1.1-1.6,1.5-2.5l28.6-55v55c0,0.9,0.2,1.8,0.6,2.6c0.4,0.8,0.9,1.4,1.5,1.8
		c0.6,0.5,1.3,0.7,2,0.7h8.9c0.8,0,1.4-0.2,2.1-0.7c0.6-0.4,1.1-1.1,1.5-1.8c0.4-0.8,0.6-1.6,0.6-2.6V43.5c0-1-0.2-1.8-0.6-2.6
		c-0.4-0.8-0.9-1.4-1.5-1.8c-0.6-0.5-1.3-0.7-2.1-0.7H474c-1,0-1.8,0.2-2.6,0.7c-0.7,0.4-1.4,1.1-1.9,1.8c-0.6,0.8-1.1,1.6-1.5,2.6
		L437.4,104.2L437.4,104.2z"/>
	<path id="_x31_23" class="st0" d="M565.6,43.5c-0.4-0.9-0.9-1.7-1.5-2.5c-0.6-0.8-1.2-1.4-2-1.9c-0.7-0.5-1.4-0.7-2.2-0.7h-14.5
		c-0.7,0-1.5,0.3-2.2,0.7c-0.7,0.5-1.3,1.1-1.9,1.9c-0.6,0.8-1.1,1.6-1.5,2.5l-32.5,69.8c-0.9,2-1.6,3.6-1.9,4.8
		c-0.3,1.3-0.4,2.3-0.3,3c0.1,0.7,0.4,1.3,0.9,1.6c0.4,0.3,0.9,0.6,1.4,0.6c0.5,0.1,1,0.1,1.5,0.1h9.9c1,0,1.7-0.2,2.3-0.6
		c0.6-0.4,1.1-1,1.5-1.8c0.4-0.8,0.8-1.7,1.3-2.7l28.8-60L572,97.4h-21.5c-0.7,0-1.4,0.2-2,0.7c-0.6,0.5-1,1.1-1.4,1.8
		c-0.4,0.8-0.7,1.6-1,2.5l-1.6,5c-0.2,0.8-0.3,1.5-0.3,2.3c0.1,0.8,0.4,1.4,1.1,2c0.6,0.5,1.7,0.8,3.2,0.8h30.1l2.8,6.1
		c0.5,1,0.9,1.8,1.2,2.5c0.3,0.6,0.6,1.2,0.9,1.5c0.3,0.4,0.6,0.6,1.1,0.8c0.4,0.2,1,0.2,1.7,0.2h8.9c0.5,0,1,0,1.6-0.1
		c0.6-0.1,1.2-0.3,1.8-0.6c0.6-0.3,1-0.7,1.3-1.4c0.3-0.6,0.4-1.5,0.2-2.6c-0.1-1.1-0.6-2.5-1.4-4.1L565.6,43.5L565.6,43.5z"/>
	<g id="_702329584">
		<path id="_702307216" class="st1" d="M88.6,3.8l22.9,13.2l0,0l22.9,13.2h0c4.4,2.5,7.9,6,10.3,10.2v0c2.4,4.2,3.7,8.9,3.7,14V81
			v26.5c0,5.1-1.3,9.8-3.7,14v0c-2.4,4.1-5.9,7.6-10.3,10.2l-22.9,13.2l-22.9,13.2c-4.4,2.6-9.2,3.8-14,3.8c-4.8,0-9.5-1.3-14-3.8
			l-22.9-13.2l-22.9-13.2c-4.4-2.5-7.9-6-10.3-10.2l0,0c-2.4-4.2-3.7-8.9-3.7-14V81V54.5c0-5.1,1.3-9.8,3.7-14l0,0
			c2.4-4.2,5.9-7.6,10.3-10.2l22.9-13.2L60.6,3.8C65,1.3,69.8,0,74.6,0C79.4,0,84.1,1.3,88.6,3.8L88.6,3.8z M104.8,28.7L81.8,15.5
			c-2.3-1.3-4.8-2-7.2-2c-2.5,0-4.9,0.7-7.2,2L44.4,28.7L21.5,42c-2.4,1.4-4.2,3.2-5.4,5.3v0c-1.2,2.1-1.9,4.6-1.9,7.3V81v26.5
			c0,2.7,0.6,5.2,1.9,7.3v0c1.2,2.1,3,3.9,5.4,5.3l22.9,13.2l22.9,13.2c2.3,1.3,4.8,2,7.2,2c2.5,0,4.9-0.7,7.2-2l22.9-13.2
			l22.9-13.2c2.3-1.4,4.2-3.2,5.4-5.3l0,0c1.2-2.1,1.8-4.6,1.8-7.3V81V54.5c0-2.7-0.6-5.2-1.8-7.3l0,0c-1.2-2.1-3-3.9-5.4-5.3l0,0
			L104.8,28.7L104.8,28.7L104.8,28.7z"/>
		<path id="_702306712" class="st1" d="M82.2,32.5l15.3,8.8l0,0l15.3,8.8h0c2.4,1.4,4.3,3.3,5.6,5.5v0c1.3,2.3,2,4.9,2,7.6V69h-13.5
			v-5.6c0-0.4-0.1-0.7-0.2-0.9l0,0c-0.1-0.2-0.4-0.5-0.7-0.6l0,0L90.8,53h0l-15.3-8.8c-0.3-0.2-0.6-0.2-0.9-0.2
			c-0.3,0-0.6,0.1-0.9,0.2L58.4,53h0l-15.3,8.8l0,0c-0.3,0.2-0.5,0.4-0.7,0.6c-0.1,0.2-0.2,0.5-0.2,0.9V81v17.7
			c0,0.4,0.1,0.7,0.2,0.9c0.1,0.2,0.4,0.5,0.7,0.6l15.3,8.8l15.3,8.8c0.3,0.2,0.6,0.2,0.9,0.2c0.3,0,0.6-0.1,0.9-0.2l15.3-8.8h0
			l15.3-8.8l0,0c0.3-0.2,0.5-0.4,0.7-0.6l0,0c0.1-0.2,0.2-0.5,0.2-0.9v-8.3H89.3c-0.4,0-0.7,0.1-0.9,0.2l0,0
			c-0.2,0.1-0.5,0.4-0.6,0.7l0,0L83,99.3H67.6l8.5-14.8v0c1.4-2.4,3.3-4.3,5.5-5.6h0c2.3-1.3,4.9-2,7.6-2c10.4,0,20.8,0,31.1,0h0v4
			V81v9.4v8.3c0,2.7-0.7,5.3-2,7.6v0c-1.3,2.3-3.2,4.2-5.6,5.5h0l-15.3,8.8l0,0l-15.3,8.8c-2.4,1.4-5,2.1-7.6,2.1
			c-2.6,0-5.2-0.7-7.6-2.1l-15.3-8.8l-15.3-8.8c-2.4-1.4-4.3-3.3-5.6-5.5c-1.3-2.3-2-4.9-2-7.6V81V63.3c0-2.7,0.7-5.3,2-7.6
			c1.3-2.3,3.2-4.2,5.6-5.5h0l15.3-8.8l0,0L67,32.5c2.4-1.4,5-2.1,7.6-2.1C77.2,30.4,79.8,31.1,82.2,32.5L82.2,32.5z"/>
	</g>
</g>
</svg>
