<?xml version="1.0" encoding="utf-8"?>
<!-- Generator: Adobe Illustrator 25.0.1, SVG Export Plug-In . SVG Version: 6.00 Build 0)  -->
<svg version="1.1" id="Layer_2" xmlns="http://www.w3.org/2000/svg" xmlns:xlink="http://www.w3.org/1999/xlink" x="0px" y="0px"
	 viewBox="0 0 200 200" style="enable-background:new 0 0 200 200;" xml:space="preserve">
<style type="text/css">
	.st0{fill:#22AD74;}
</style>
<g id="_702329584">
	<path id="_702307216" class="st0" d="M112.1,33.3l19.8,11.4l0,0l19.8,11.4h0c3.8,2.2,6.8,5.2,8.9,8.8v0c2.1,3.6,3.2,7.7,3.2,12.1
		V100v22.9c0,4.4-1.1,8.5-3.2,12.1v0c-2.1,3.6-5.1,6.6-8.9,8.8l-19.8,11.4l-19.8,11.4c-3.8,2.2-8,3.3-12.1,3.3
		c-4.1,0-8.2-1.1-12.1-3.3l-19.8-11.4l-19.8-11.4c-3.8-2.2-6.8-5.2-8.9-8.8l0,0c-2.1-3.6-3.2-7.7-3.2-12.1V100V77.1
		c0-4.4,1.1-8.5,3.2-12.1l0,0c2.1-3.6,5.1-6.6,8.9-8.8l19.8-11.4l19.8-11.4c3.8-2.2,8-3.3,12.1-3.3C104.1,30,108.2,31.1,112.1,33.3
		L112.1,33.3z M126.1,54.8l-19.8-11.4c-2-1.2-4.1-1.7-6.3-1.7c-2.1,0-4.3,0.6-6.3,1.7L73.9,54.8L54.1,66.3c-2,1.2-3.6,2.7-4.7,4.5v0
		c-1,1.8-1.6,3.9-1.6,6.3V100v22.9c0,2.3,0.6,4.5,1.6,6.3v0c1,1.8,2.6,3.4,4.7,4.5l19.8,11.4l19.8,11.4c2,1.2,4.1,1.7,6.3,1.7
		c2.1,0,4.3-0.6,6.3-1.7l19.8-11.4l19.8-11.4c2-1.2,3.6-2.7,4.7-4.6l0,0c1-1.8,1.6-3.9,1.6-6.3V100V77.1c0-2.4-0.6-4.5-1.6-6.3l0,0
		c-1.1-1.8-2.6-3.4-4.7-4.6l0,0L126.1,54.8L126.1,54.8L126.1,54.8z"/>
	<path id="_702306712" class="st0" d="M106.6,58.1l13.2,7.6l0,0l13.2,7.6h0c2.1,1.2,3.7,2.8,4.8,4.8v0c1.1,2,1.8,4.2,1.8,6.6v4.9
		h-11.6v-4.9c0-0.3-0.1-0.6-0.2-0.8l0,0c-0.1-0.2-0.3-0.4-0.6-0.6l0,0L114,75.8h0l-13.2-7.6c-0.2-0.1-0.5-0.2-0.8-0.2
		c-0.3,0-0.5,0.1-0.8,0.2L86,75.8h0l-13.2,7.6l0,0c-0.3,0.2-0.5,0.3-0.6,0.6c-0.1,0.2-0.2,0.4-0.2,0.8V100v15.3
		c0,0.3,0.1,0.6,0.2,0.8c0.1,0.2,0.3,0.4,0.6,0.6l13.2,7.6l13.2,7.6c0.2,0.1,0.5,0.2,0.8,0.2c0.3,0,0.5-0.1,0.8-0.2l13.2-7.6h0
		l13.2-7.6l0,0c0.3-0.2,0.5-0.3,0.6-0.6l0,0c0.1-0.2,0.2-0.4,0.2-0.8v-7.2h-15.3c-0.3,0-0.6,0.1-0.8,0.2l0,0
		c-0.2,0.1-0.4,0.3-0.6,0.6l0,0l-4,7H93.9l7.4-12.8v0c1.2-2.1,2.8-3.7,4.8-4.8h0c2-1.1,4.2-1.8,6.6-1.8c9,0,17.9,0,26.9,0h0v3.5v0.1
		v8.1v7.2c0,2.4-0.6,4.6-1.8,6.6v0c-1.1,2-2.8,3.6-4.8,4.8h0l-13.2,7.6l0,0l-13.2,7.6c-2.1,1.2-4.3,1.8-6.6,1.8
		c-2.2,0-4.5-0.6-6.6-1.8l-13.2-7.6L67,126.6c-2.1-1.2-3.7-2.8-4.8-4.8c-1.1-2-1.8-4.2-1.8-6.6V100V84.7c0-2.4,0.6-4.6,1.8-6.6
		c1.1-2,2.8-3.6,4.8-4.8h0l13.2-7.6l0,0l13.2-7.6c2.1-1.2,4.3-1.8,6.6-1.8C102.3,56.3,104.5,56.9,106.6,58.1L106.6,58.1z"/>
</g>
</svg>
